<?xml version="1.0" encoding="utf-8"?>
<!-- Generator: Adobe Illustrator 24.0.0, SVG Export Plug-In . SVG Version: 6.00 Build 0)  -->
<svg version="1.1" id="Capa_2_1_" xmlns="http://www.w3.org/2000/svg" xmlns:xlink="http://www.w3.org/1999/xlink" x="0px" y="0px"
	 viewBox="0 0 506 407" style="enable-background:new 0 0 506 407;" xml:space="preserve">
<style type="text/css">
	.st0{opacity:0.3;fill:#55C0EA;enable-background:new    ;}
	.st1{clip-path:url(#SVGID_7_);}
	.st2{clip-path:url(#SVGID_11_);fill:url(#SVGID_12_);}
	.st3{fill:url(#SVGID_13_);}
	.st4{fill:#D6F3FF;}
	.st5{fill:#C2E5FF;}
	.st6{opacity:0.1;fill:#0077CD;enable-background:new    ;}
	.st7{clip-path:url(#SVGID_16_);}
	.st8{clip-path:url(#SVGID_17_);fill:url(#SVGID_18_);}
	.st9{fill:url(#SVGID_19_);}
	.st10{opacity:0.3;}
	.st11{fill:#DEF5FF;}
	.st12{clip-path:url(#SVGID_22_);}
	.st13{clip-path:url(#SVGID_23_);fill:url(#SVGID_24_);}
	.st14{fill:url(#SVGID_25_);}
	.st15{fill:#CEF0FF;}
	.st16{fill:#CCEAFF;}
	.st17{fill:#B5E0FF;}
	.st18{fill:#ABDCFF;}
	.st19{opacity:0.3;fill:#FFFFFF;enable-background:new    ;}
	.st20{fill:#FFFFFF;}
	.st21{opacity:0.5;fill:url(#SVGID_26_);enable-background:new    ;}
	.st22{fill:#172B36;}
	.st23{fill:#1C298F;}
	.st24{fill:url(#SVGID_27_);}
	.st25{clip-path:url(#SVGID_30_);}
	.st26{clip-path:url(#SVGID_31_);fill:url(#SVGID_32_);}
	.st27{fill:url(#SVGID_33_);}
	.st28{clip-path:url(#SVGID_36_);}
	.st29{clip-path:url(#SVGID_37_);fill:url(#SVGID_38_);}
	.st30{fill:url(#SVGID_39_);}
	.st31{clip-path:url(#SVGID_42_);}
	.st32{clip-path:url(#SVGID_43_);fill:url(#SVGID_44_);}
	.st33{fill:url(#SVGID_45_);}
	.st34{opacity:0.5;fill:#003052;enable-background:new    ;}
	.st35{fill:#8CD3EF;}
	.st36{fill:#283558;}
	.st37{fill:#0077CD;}
	.st38{fill:#BCCFE3;}
	.st39{fill:#80A0D1;}
	.st40{opacity:0.2;fill:#2A335C;enable-background:new    ;}
	.st41{opacity:0.9;fill:#008DF0;enable-background:new    ;}
	.st42{opacity:0.9;fill:#FAFAFA;enable-background:new    ;}
	.st43{opacity:0.3;fill:#1C298F;enable-background:new    ;}
	.st44{opacity:0.9;fill:#ECF3FF;enable-background:new    ;}
	.st45{fill:url(#SVGID_46_);}
	.st46{fill:#F5F6FA;}
	.st47{fill:url(#SVGID_47_);}
	.st48{fill:url(#SVGID_48_);}
	.st49{clip-path:url(#SVGID_51_);}
	.st50{clip-path:url(#SVGID_52_);fill:url(#SVGID_53_);}
	.st51{fill:url(#SVGID_54_);}
	.st52{fill:url(#SVGID_55_);}
	.st53{opacity:0.3;fill:#F7F7FF;enable-background:new    ;}
	.st54{fill:#EDF1FB;}
	.st55{fill:#1A52E0;}
	.st56{fill:url(#SVGID_56_);}
	.st57{fill:url(#SVGID_57_);}
	.st58{fill:url(#SVGID_58_);}
	.st59{fill:url(#SVGID_59_);}
	.st60{fill:url(#SVGID_60_);}
	.st61{fill:#0093DF;}
	.st62{fill:#00B1E2;}
	.st63{fill:#C7DEFF;}
	.st64{fill:#E3EFFF;}
	.st65{fill:#71CCF4;}
	.st66{fill:#8FDEF9;}
	.st67{fill:#67C6E8;}
	.st68{fill:#EADCDD;}
	.st69{fill:#AED0E5;}
	.st70{fill:#D7ECF9;}
	.st71{fill:#3E9ED4;}
	.st72{fill:#75CEFF;}
	.st73{fill:#47B5F2;}
	.st74{fill:#F2E9E4;}
	.st75{fill:url(#SVGID_61_);}
	.st76{fill:#ECF3FF;}
	.st77{fill:url(#SVGID_62_);}
	.st78{fill:url(#SVGID_63_);}
	.st79{fill:url(#SVGID_64_);}
	.st80{fill:#0E3E77;}
	.st81{fill:#65BCF9;}
	.st82{fill:#54AAF3;}
	.st83{fill:#4497EE;}
	.st84{fill:#3385E8;}
	.st85{fill:#ECDFDF;}
	.st86{fill:#EEE3E1;}
	.st87{fill:#F0E6E2;}
	.st88{fill:#1D7EDD;}
	.st89{fill:#1867B5;}
	.st90{fill:#175CA0;}
	.st91{fill:#124D87;}
	.st92{fill:#114FAA;}
	.st93{fill:url(#SVGID_65_);}
	.st94{fill:#1E70D3;}
	.st95{fill:#D5584D;}
	.st96{fill:url(#SVGID_66_);}
	.st97{fill:url(#SVGID_67_);}
	.st98{fill:url(#SVGID_68_);}
	.st99{fill:url(#SVGID_69_);}
	.st100{fill:url(#SVGID_70_);}
	.st101{fill:url(#SVGID_71_);}
	.st102{fill:url(#SVGID_72_);}
	.st103{fill:#242C4F;}
	.st104{fill:url(#SVGID_73_);}
	.st105{fill:url(#SVGID_74_);}
	.st106{fill:url(#SVGID_75_);}
	.st107{fill:url(#SVGID_76_);}
	.st108{fill:#004A80;}
	.st109{fill:url(#SVGID_77_);}
	.st110{fill:#005FF0;}
	.st111{fill:#0056EC;}
	.st112{fill:url(#SVGID_78_);}
</style>
<path class="st0" d="M486.3,341.8H163.6C75,341.8,3.2,270,3.2,181.4v-3.2C3.2,89.6,75,17.8,163.6,17.8h92L486.3,341.8z"/>
<g>
	<g>
		<g>
			<defs>
				<polygon id="SVGID_1_" points="1,1 2,1 1,2 				"/>
			</defs>
			<defs>
				<polygon id="SVGID_4_" points="-1,-1 -2,-1 -1,-2 				"/>
			</defs>
			<clipPath id="SVGID_7_">
				<use xlink:href="#SVGID_1_"  style="overflow:visible;"/>
			</clipPath>
			<clipPath id="SVGID_11_" class="st1">
				<use xlink:href="#SVGID_4_"  style="overflow:visible;"/>
			</clipPath>
			
				<linearGradient id="SVGID_12_" gradientUnits="userSpaceOnUse" x1="480.8" y1="342.6037" x2="480.8" y2="61.0113" gradientTransform="matrix(1 0 0 -1 0 408)">
				<stop  offset="0" style="stop-color:#808080"/>
				<stop  offset="3.825330e-03" style="stop-color:#818181"/>
				<stop  offset="0.1485" style="stop-color:#A7A7A7"/>
				<stop  offset="0.2972" style="stop-color:#C7C7C7"/>
				<stop  offset="0.4521" style="stop-color:#E0E0E0"/>
				<stop  offset="0.6137" style="stop-color:#F1F1F1"/>
				<stop  offset="0.7864" style="stop-color:#FCFCFC"/>
				<stop  offset="0.9892" style="stop-color:#FFFFFF"/>
			</linearGradient>
			<rect x="457.3" y="68.3" class="st2" width="47" height="273.5"/>
		</g>
	</g>
	
		<linearGradient id="SVGID_13_" gradientUnits="userSpaceOnUse" x1="480.8" y1="342.6037" x2="480.8" y2="61.0113" gradientTransform="matrix(1 0 0 -1 0 408)">
		<stop  offset="0" style="stop-color:#DFF4FF"/>
		<stop  offset="2.233245e-02" style="stop-color:#DCF3FF"/>
		<stop  offset="0.2378" style="stop-color:#C3E6FE"/>
		<stop  offset="0.4638" style="stop-color:#B2DEFD"/>
		<stop  offset="0.7053" style="stop-color:#A7D9FC"/>
		<stop  offset="0.9892" style="stop-color:#A4D7FC"/>
	</linearGradient>
	<rect x="457.3" y="68.3" class="st3" width="47" height="273.5"/>
	<polygon class="st4" points="457.3,68.3 480.8,156.4 480.8,341.8 457.3,341.8 	"/>
	<polygon class="st5" points="504.4,68.3 480.8,156.4 480.8,341.8 504.4,341.8 	"/>
	<polygon class="st6" points="457.3,341.8 470.3,341.8 470.3,182.5 457.3,175.3 	"/>
	<g>
		<g>
			<defs>
				<polygon id="SVGID_14_" points="1,1 2,1 1,2 				"/>
			</defs>
			<defs>
				<polygon id="SVGID_15_" points="-1,-1 -2,-1 -1,-2 				"/>
			</defs>
			<clipPath id="SVGID_16_">
				<use xlink:href="#SVGID_14_"  style="overflow:visible;"/>
			</clipPath>
			<clipPath id="SVGID_17_" class="st7">
				<use xlink:href="#SVGID_15_"  style="overflow:visible;"/>
			</clipPath>
			
				<linearGradient id="SVGID_18_" gradientUnits="userSpaceOnUse" x1="427.2" y1="267.8756" x2="427.2" y2="62.4176" gradientTransform="matrix(1 0 0 -1 0 408)">
				<stop  offset="0" style="stop-color:#808080"/>
				<stop  offset="3.825330e-03" style="stop-color:#818181"/>
				<stop  offset="0.1485" style="stop-color:#A7A7A7"/>
				<stop  offset="0.2972" style="stop-color:#C7C7C7"/>
				<stop  offset="0.4521" style="stop-color:#E0E0E0"/>
				<stop  offset="0.6137" style="stop-color:#F1F1F1"/>
				<stop  offset="0.7864" style="stop-color:#FCFCFC"/>
				<stop  offset="0.9892" style="stop-color:#FFFFFF"/>
			</linearGradient>
			<rect x="409.4" y="142.2" class="st8" width="35.6" height="199.5"/>
		</g>
	</g>
	
		<linearGradient id="SVGID_19_" gradientUnits="userSpaceOnUse" x1="427.2" y1="267.8756" x2="427.2" y2="62.4176" gradientTransform="matrix(1 0 0 -1 0 408)">
		<stop  offset="0" style="stop-color:#DFF4FF"/>
		<stop  offset="2.233245e-02" style="stop-color:#DCF3FF"/>
		<stop  offset="0.2378" style="stop-color:#C3E6FE"/>
		<stop  offset="0.4638" style="stop-color:#B2DEFD"/>
		<stop  offset="0.7053" style="stop-color:#A7D9FC"/>
		<stop  offset="0.9892" style="stop-color:#A4D7FC"/>
	</linearGradient>
	<rect x="409.4" y="142.2" class="st9" width="35.6" height="199.5"/>
	<g>
		<g class="st10">
			<rect x="412.6" y="142.2" class="st11" width="1.1" height="199.1"/>
		</g>
		<g class="st10">
			<rect x="418.2" y="142.2" class="st11" width="1.1" height="199.1"/>
		</g>
		<g class="st10">
			<rect x="423.8" y="142.2" class="st11" width="1.1" height="199.1"/>
		</g>
		<g class="st10">
			<rect x="429.4" y="142.2" class="st11" width="1.1" height="199.1"/>
		</g>
		<g class="st10">
			<rect x="435" y="142.2" class="st11" width="1.1" height="199.1"/>
		</g>
		<g class="st10">
			<rect x="440.6" y="142.2" class="st11" width="1.1" height="199.1"/>
		</g>
	</g>
	<g>
		<g>
			<defs>
				<polygon id="SVGID_20_" points="1,1 2,1 1,2 				"/>
			</defs>
			<defs>
				<polygon id="SVGID_21_" points="-1,-1 -2,-1 -1,-2 				"/>
			</defs>
			<clipPath id="SVGID_22_">
				<use xlink:href="#SVGID_20_"  style="overflow:visible;"/>
			</clipPath>
			<clipPath id="SVGID_23_" class="st12">
				<use xlink:href="#SVGID_21_"  style="overflow:visible;"/>
			</clipPath>
			
				<linearGradient id="SVGID_24_" gradientUnits="userSpaceOnUse" x1="360.65" y1="304.571" x2="360.65" y2="62.0405" gradientTransform="matrix(1 0 0 -1 0 408)">
				<stop  offset="0" style="stop-color:#808080"/>
				<stop  offset="3.825330e-03" style="stop-color:#818181"/>
				<stop  offset="0.1485" style="stop-color:#A7A7A7"/>
				<stop  offset="0.2972" style="stop-color:#C7C7C7"/>
				<stop  offset="0.4521" style="stop-color:#E0E0E0"/>
				<stop  offset="0.6137" style="stop-color:#F1F1F1"/>
				<stop  offset="0.7864" style="stop-color:#FCFCFC"/>
				<stop  offset="0.9892" style="stop-color:#FFFFFF"/>
			</linearGradient>
			<rect x="332" y="105.9" class="st13" width="57.3" height="235.5"/>
		</g>
	</g>
	
		<linearGradient id="SVGID_25_" gradientUnits="userSpaceOnUse" x1="360.65" y1="304.571" x2="360.65" y2="62.0405" gradientTransform="matrix(1 0 0 -1 0 408)">
		<stop  offset="0" style="stop-color:#DFF4FF"/>
		<stop  offset="2.233245e-02" style="stop-color:#DCF3FF"/>
		<stop  offset="0.2378" style="stop-color:#C3E6FE"/>
		<stop  offset="0.4638" style="stop-color:#B2DEFD"/>
		<stop  offset="0.7053" style="stop-color:#A7D9FC"/>
		<stop  offset="0.9892" style="stop-color:#A4D7FC"/>
	</linearGradient>
	<rect x="332" y="105.9" class="st14" width="57.3" height="235.5"/>
	<rect x="344.6" y="88.2" class="st11" width="33.8" height="17.7"/>
	<rect x="344.6" y="88.2" class="st15" width="6" height="17.7"/>
	<rect x="367.7" y="88.2" class="st5" width="10.7" height="17.7"/>
	<rect x="370.2" y="105.9" class="st5" width="19" height="235.5"/>
	<rect x="332" y="105.9" class="st15" width="9.8" height="235.9"/>
	<rect x="415.1" y="132.3" class="st16" width="23.2" height="10"/>
	<rect x="401.6" y="132.3" class="st17" width="13.6" height="10"/>
	<polygon class="st18" points="424.8,122 409.7,122 401.6,132.3 424.8,132.3 	"/>
	<rect x="396.7" y="142.2" class="st15" width="12.7" height="199.5"/>
	<polygon class="st11" points="430.2,122 423.3,122 415.1,132.3 438.3,132.3 	"/>
	<rect x="341.8" y="114.2" class="st19" width="28.5" height="1.8"/>
	<rect x="341.8" y="185.8" class="st19" width="28.5" height="1.8"/>
	<rect x="457.3" y="121.9" class="st19" width="47.1" height="1"/>
	<rect x="457.3" y="138.4" class="st19" width="47.1" height="1"/>
	<rect x="457.3" y="154.9" class="st19" width="47.1" height="1"/>
	<rect x="457.3" y="171.4" class="st19" width="47.1" height="1"/>
	<rect x="457.3" y="187.9" class="st19" width="47.1" height="1"/>
	<rect x="457.3" y="204.4" class="st19" width="47.1" height="1"/>
	<rect x="457.3" y="220.9" class="st19" width="47.1" height="1"/>
	<rect x="457.3" y="237.4" class="st19" width="47.1" height="1"/>
	<rect x="457.3" y="253.9" class="st19" width="47.1" height="1"/>
	<rect x="457.3" y="270.4" class="st19" width="47.1" height="1"/>
	<rect x="457.3" y="286.8" class="st19" width="47.1" height="1"/>
	<rect x="457.3" y="303.3" class="st19" width="47.1" height="1"/>
	<rect x="457.3" y="319.8" class="st19" width="47.1" height="1"/>
	<rect x="457.3" y="336.3" class="st19" width="47.1" height="1"/>
	<rect x="341.8" y="257.3" class="st19" width="28.5" height="1.8"/>
	<rect x="341.8" y="328.9" class="st19" width="28.5" height="1.8"/>
	<path class="st6" d="M389.2,105.9c0,0,6.8,140.5-57.3,197.7v38.2h57.3V105.9z"/>
	<rect x="424.3" y="303.5" class="st18" width="56.6" height="38.3"/>
	<rect x="433.4" y="312.7" class="st6" width="38.3" height="20"/>
	<rect x="417.2" y="303.5" class="st4" width="7.1" height="38.3"/>
	<rect x="445" y="290.7" class="st18" width="28.6" height="12.8"/>
	<rect x="437.4" y="290.7" class="st16" width="7.6" height="12.8"/>
	<rect x="346" y="119.8" class="st5" width="4.7" height="2.2"/>
	<rect x="346" y="158.7" class="st5" width="4.7" height="2.2"/>
	<rect x="353.2" y="158.7" class="st5" width="4.7" height="2.2"/>
	<rect x="360.4" y="158.7" class="st5" width="4.7" height="2.2"/>
	<rect x="353.2" y="127.1" class="st5" width="4.7" height="2.2"/>
	<rect x="360.4" y="134.5" class="st5" width="4.7" height="2.2"/>
	<rect x="360.4" y="205.6" class="st19" width="4.7" height="2.2"/>
	<rect x="470.9" y="81" class="st6" width="19.8" height="13.1"/>
	<rect x="399.2" y="152.7" class="st18" width="4.7" height="2.2"/>
	<rect x="403.9" y="171.3" class="st18" width="4.7" height="2.2"/>
	<rect x="399.2" y="194" class="st20" width="4.7" height="2.2"/>
	<rect x="460.1" y="134.5" class="st20" width="4.7" height="2.2"/>
	<rect x="460.1" y="151.6" class="st5" width="4.7" height="2.2"/>
	<rect x="468" y="151.6" class="st20" width="4.7" height="2.2"/>
	<rect x="484.5" y="184.7" class="st20" width="4.7" height="2.2"/>
	<rect x="492.4" y="184.7" class="st20" width="4.7" height="2.2"/>
	<rect x="497.1" y="177.4" class="st20" width="4.7" height="2.2"/>
	<polygon class="st6" points="454.1,303.5 445,303.5 445,290.7 	"/>
</g>
<rect x="323.9" y="312.7" class="st20" width="180.4" height="5"/>
<g>
	<g>
		<path class="st5" d="M424.6,73.3h-0.1l-9.7-3.9c-0.1-0.1-0.2-0.2-0.2-0.3V56.4c0-0.1,0.1-0.2,0.1-0.3c0.1-0.1,0.2-0.1,0.3-0.1
			l9.6,2.9l9.6-2.9c0.1,0,0.2,0,0.3,0.1c0.1,0.1,0.1,0.2,0.1,0.3v12.7c0,0.1-0.1,0.3-0.2,0.3L424.6,73.3
			C424.7,73.3,424.6,73.3,424.6,73.3z M415.2,68.8l9.4,3.8l9.4-3.8V56.9l-9.3,2.8c-0.1,0-0.1,0-0.2,0l-9.3-2.8V68.8z"/>
	</g>
	<g>
		<path class="st5" d="M434.3,56.8h-0.1l-9.6-2.9l-9.6,2.9c-0.2,0.1-0.4,0-0.4-0.2c-0.1-0.2,0-0.4,0.2-0.4l9.7-2.9
			c0.1,0,0.1,0,0.2,0l9.7,2.9c0.2,0.1,0.3,0.3,0.2,0.4C434.6,56.7,434.5,56.8,434.3,56.8z"/>
	</g>
	<polygon class="st5" points="424.6,72.9 424.6,59.3 434.3,56.4 434.3,69.1 	"/>
	<g>
		<path class="st5" d="M436.3,89.9c-0.1,0-0.1,0-0.2,0l-7.8-3.9c-0.1-0.1-0.2-0.2-0.2-0.3v-8.8c0-0.1,0.1-0.2,0.2-0.3
			c0.1-0.1,0.2-0.1,0.3,0l7.7,2.9l7.7-2.9c0.1,0,0.2,0,0.3,0c0.1,0.1,0.2,0.2,0.2,0.3v8.8c0,0.1-0.1,0.3-0.2,0.3l-7.8,3.9
			C436.4,89.8,436.3,89.9,436.3,89.9z M428.9,85.4l7.4,3.7l7.4-3.7v-8l-7.3,2.7c-0.1,0-0.2,0-0.2,0l-7.3-2.7V85.4z"/>
	</g>
	<g>
		<path class="st5" d="M444.1,77.2H444l-7.7-2.9l-7.7,2.9c-0.2,0.1-0.4,0-0.5-0.2s0-0.4,0.2-0.5l7.8-2.9c0.1,0,0.2,0,0.2,0l7.8,2.9
			c0.2,0.1,0.3,0.3,0.2,0.5C444.4,77.1,444.2,77.2,444.1,77.2z"/>
	</g>
	<polygon class="st5" points="436.3,89.4 436.3,79.7 444.1,76.8 444.1,85.6 	"/>
	<g>
		<path class="st5" d="M412.9,98.6h-0.1l-11.7-3.9c-0.1,0-0.2-0.2-0.2-0.3V78.8c0-0.1,0.1-0.2,0.1-0.3c0.1-0.1,0.2-0.1,0.3,0
			l11.6,3.9l11.6-3.9c0.1,0,0.2,0,0.3,0c0.1,0.1,0.1,0.2,0.1,0.3v15.6c0,0.2-0.1,0.3-0.2,0.3L413,98.6C413,98.6,413,98.6,412.9,98.6
			z M401.6,94.1l11.3,3.8l11.3-3.8V79.3L413,83c-0.1,0-0.2,0-0.2,0l-11.2-3.7L401.6,94.1L401.6,94.1z"/>
	</g>
	<g>
		<path class="st5" d="M424.6,79.1h-0.1l-11.6-3.9l-11.6,3.9c-0.2,0.1-0.4,0-0.4-0.2c-0.1-0.2,0-0.4,0.2-0.4l11.7-3.9
			c0.1,0,0.2,0,0.2,0l11.7,3.9c0.2,0.1,0.3,0.3,0.2,0.4C424.9,79.1,424.8,79.1,424.6,79.1z"/>
	</g>
	<polygon class="st5" points="412.9,82.6 412.9,98.2 424.6,94.4 424.6,78.8 	"/>
</g>
<linearGradient id="SVGID_26_" gradientUnits="userSpaceOnUse" x1="200.8" y1="229.35" x2="324.8" y2="229.35" gradientTransform="matrix(1 0 0 -1 0 408)">
	<stop  offset="0" style="stop-color:#FFFFFF"/>
	<stop  offset="1" style="stop-color:#CDDBFE"/>
</linearGradient>
<path class="st21" d="M305.5,305.2H220c-10.6,0-19.2-8.6-19.2-19.2V71.3c0-10.6,8.6-19.2,19.2-19.2h85.6c10.6,0,19.2,8.6,19.2,19.2
	V286C324.7,296.6,316.1,305.2,305.5,305.2z"/>
<path class="st22" d="M301.1,305.2h-85.6c-10.6,0-19.2-8.6-19.2-19.2V71.3c0-10.6,8.6-19.2,19.2-19.2h85.6
	c10.6,0,19.2,8.6,19.2,19.2V286C320.3,296.6,311.7,305.2,301.1,305.2z"/>
<path class="st23" d="M298.6,305.2H213c-10.6,0-19.2-8.6-19.2-19.2V71.3c0-10.6,8.6-19.2,19.2-19.2h85.6c10.6,0,19.2,8.6,19.2,19.2
	V286C317.8,296.6,309.2,305.2,298.6,305.2z"/>
<linearGradient id="SVGID_27_" gradientUnits="userSpaceOnUse" x1="255.8" y1="340.8559" x2="255.8" y2="106.7456" gradientTransform="matrix(1 0 0 -1 0 408)">
	<stop  offset="0" style="stop-color:#0781FF"/>
	<stop  offset="6.556690e-03" style="stop-color:#0781FF"/>
	<stop  offset="0.5803" style="stop-color:#076FFF"/>
	<stop  offset="1" style="stop-color:#0769FF"/>
</linearGradient>
<path class="st24" d="M309.8,71.3V286c0,6.2-5,11.2-11.2,11.2H213c-6.2,0-11.2-5-11.2-11.2V71.3c0-6.2,5-11.2,11.2-11.2h85.6
	C304.8,60.1,309.8,65.2,309.8,71.3z"/>
<g>
	<g>
		<defs>
			<polygon id="SVGID_28_" points="1,1 2,1 1,2 			"/>
		</defs>
		<defs>
			<polygon id="SVGID_29_" points="-1,-1 -2,-1 -1,-2 			"/>
		</defs>
		<clipPath id="SVGID_30_">
			<use xlink:href="#SVGID_28_"  style="overflow:visible;"/>
		</clipPath>
		<clipPath id="SVGID_31_" class="st25">
			<use xlink:href="#SVGID_29_"  style="overflow:visible;"/>
		</clipPath>
		
			<linearGradient id="SVGID_32_" gradientUnits="userSpaceOnUse" x1="255.8" y1="355.1759" x2="255.8" y2="334.5718" gradientTransform="matrix(1 0 0 -1 0 408)">
			<stop  offset="0" style="stop-color:#999999"/>
			<stop  offset="1" style="stop-color:#000000"/>
		</linearGradient>
		<path class="st26" d="M298.6,52.1H213c-10.6,0-19.2,8.6-19.2,19.2v0.9c0-10.6,8.6-19.2,19.2-19.2h85.6c10.6,0,19.2,8.6,19.2,19.2
			v-0.9C317.8,60.7,309.2,52.1,298.6,52.1z"/>
	</g>
</g>
<linearGradient id="SVGID_33_" gradientUnits="userSpaceOnUse" x1="255.8" y1="355.1759" x2="255.8" y2="334.5718" gradientTransform="matrix(1 0 0 -1 0 408)">
	<stop  offset="0" style="stop-color:#FFFFFF"/>
	<stop  offset="1" style="stop-color:#72A2D5"/>
</linearGradient>
<path class="st27" d="M298.6,52.1H213c-10.6,0-19.2,8.6-19.2,19.2v0.9c0-10.6,8.6-19.2,19.2-19.2h85.6c10.6,0,19.2,8.6,19.2,19.2
	v-0.9C317.8,60.7,309.2,52.1,298.6,52.1z"/>
<g>
	<g>
		<defs>
			<polygon id="SVGID_34_" points="1,1 2,1 1,2 			"/>
		</defs>
		<defs>
			<polygon id="SVGID_35_" points="-1,-1 -2,-1 -1,-2 			"/>
		</defs>
		<clipPath id="SVGID_36_">
			<use xlink:href="#SVGID_34_"  style="overflow:visible;"/>
		</clipPath>
		<clipPath id="SVGID_37_" class="st28">
			<use xlink:href="#SVGID_35_"  style="overflow:visible;"/>
		</clipPath>
		
			<linearGradient id="SVGID_38_" gradientUnits="userSpaceOnUse" x1="281.2" y1="344.5678" x2="281.2" y2="248.4622" gradientTransform="matrix(1 0 0 -1 0 408)">
			<stop  offset="0" style="stop-color:#666666"/>
			<stop  offset="1" style="stop-color:#000000"/>
		</linearGradient>
		<path class="st29" d="M309.8,71.3v82.6l-57.2-93.8h46C304.8,60.1,309.8,65.2,309.8,71.3z"/>
	</g>
</g>
<linearGradient id="SVGID_39_" gradientUnits="userSpaceOnUse" x1="281.2" y1="344.5678" x2="281.2" y2="248.4622" gradientTransform="matrix(1 0 0 -1 0 408)">
	<stop  offset="0" style="stop-color:#FFFFFF"/>
	<stop  offset="1" style="stop-color:#0077CD"/>
</linearGradient>
<path class="st30" d="M309.8,71.3v82.6l-57.2-93.8h46C304.8,60.1,309.8,65.2,309.8,71.3z"/>
<g>
	<g>
		<defs>
			<polygon id="SVGID_40_" points="1,1 2,1 1,2 			"/>
		</defs>
		<defs>
			<polygon id="SVGID_41_" points="-1,-1 -2,-1 -1,-2 			"/>
		</defs>
		<clipPath id="SVGID_42_">
			<use xlink:href="#SVGID_40_"  style="overflow:visible;"/>
		</clipPath>
		<clipPath id="SVGID_43_" class="st31">
			<use xlink:href="#SVGID_41_"  style="overflow:visible;"/>
		</clipPath>
		
			<linearGradient id="SVGID_44_" gradientUnits="userSpaceOnUse" x1="240.2493" y1="231.8695" x2="240.2493" y2="103.3252" gradientTransform="matrix(1 0 0 -1 0 408)">
			<stop  offset="0" style="stop-color:#666666"/>
			<stop  offset="1" style="stop-color:#000000"/>
		</linearGradient>
		<path class="st32" d="M213.1,297.2h65.4L202,171.8V286C201.9,292.2,206.9,297.2,213.1,297.2z"/>
	</g>
</g>
<linearGradient id="SVGID_45_" gradientUnits="userSpaceOnUse" x1="240.2493" y1="231.8695" x2="240.2493" y2="103.3252" gradientTransform="matrix(1 0 0 -1 0 408)">
	<stop  offset="0" style="stop-color:#FFFFFF"/>
	<stop  offset="1" style="stop-color:#0077CD"/>
</linearGradient>
<path class="st33" d="M213.1,297.2h65.4L202,171.8V286C201.9,292.2,206.9,297.2,213.1,297.2z"/>
<path class="st34" d="M292.9,269.4c-1.7,0-3.1,1.3-3.3,2.9h-30.5c-0.2-1.6-1.6-2.9-3.3-2.9s-3.1,1.3-3.3,2.9H222
	c-0.2-1.6-1.6-2.9-3.3-2.9c-1.8,0-3.3,1.5-3.3,3.3s1.5,3.3,3.3,3.3c1.7,0,3.1-1.3,3.3-2.9h30.5c0.2,1.6,1.6,2.9,3.3,2.9
	s3.1-1.3,3.3-2.9h30.5c0.2,1.6,1.6,2.9,3.3,2.9c1.8,0,3.3-1.5,3.3-3.3S294.7,269.4,292.9,269.4z"/>
<g>
	<path class="st35" d="M292.9,272.4h-74.1c-0.3,0-0.6-0.3-0.6-0.6c0-0.3,0.3-0.6,0.6-0.6h74.1c0.3,0,0.6,0.3,0.6,0.6
		C293.4,272.2,293.2,272.4,292.9,272.4z"/>
</g>
<path class="st36" d="M218.8,275.2c-1.8,0-3.3-1.5-3.3-3.3s1.5-3.3,3.3-3.3s3.3,1.5,3.3,3.3S220.6,275.2,218.8,275.2z"/>
<path class="st35" d="M255.8,275.2c-1.8,0-3.3-1.5-3.3-3.3s1.5-3.3,3.3-3.3s3.3,1.5,3.3,3.3C259.2,273.7,257.7,275.2,255.8,275.2z"
	/>
<path class="st37" d="M255.8,273.3c-0.8,0-1.4-0.6-1.4-1.4s0.6-1.4,1.4-1.4c0.8,0,1.4,0.6,1.4,1.4S256.6,273.3,255.8,273.3z"/>
<path class="st35" d="M292.9,275.2c-1.8,0-3.3-1.5-3.3-3.3s1.5-3.3,3.3-3.3s3.3,1.5,3.3,3.3C296.2,273.7,294.7,275.2,292.9,275.2z"
	/>
<g>
	<path class="st20" d="M218.6,273.7c-0.2,0-0.3-0.1-0.4-0.2L217,272c-0.2-0.2-0.2-0.6,0.1-0.8c0.2-0.2,0.6-0.2,0.8,0.1l0.8,0.9
		l1.5-1.7c0.2-0.2,0.6-0.3,0.8-0.1c0.2,0.2,0.3,0.6,0.1,0.8l-1.9,2.2C218.9,273.7,218.7,273.7,218.6,273.7z"/>
</g>
<g>
	<path class="st38" d="M310.6,145h-109c-0.2,0-0.3-0.1-0.3-0.3s0.1-0.3,0.3-0.3h109c0.2,0,0.3,0.1,0.3,0.3S310.7,145,310.6,145z"/>
</g>
<g>
	<path class="st38" d="M289.5,217.5c-0.2,0-0.3-0.1-0.3-0.3V129c0-0.2,0.1-0.3,0.3-0.3s0.3,0.1,0.3,0.3v88.2
		C289.8,217.3,289.7,217.5,289.5,217.5z"/>
</g>
<g>
	<path class="st39" d="M225,142.1c-1.7,0-3.1-1.4-3.1-3.1c0-1.7,1.4-3.1,3.1-3.1c1.7,0,3.1,1.4,3.1,3.1
		C228.1,140.7,226.7,142.1,225,142.1z M225,137.1c-1.1,0-2,0.9-2,2s0.9,2,2,2s2-0.9,2-2C227,137.9,226.1,137.1,225,137.1z"/>
</g>
<path class="st40" d="M317.8,164.4h-42.3c-2.7,0-5,2.2-5,5v86.7c0,2.7,2.2,5,5,5h42.3V164.4z"/>
<path class="st41" d="M430.5,259.2H272.9c-2.7,0-5-2.2-5-5v-86.7c0-2.7,2.2-5,5-5h157.6c2.7,0,5,2.2,5,5v86.7
	C435.5,257,433.2,259.2,430.5,259.2z"/>
<path class="st40" d="M240.1,118.7h-46.3v98.9h46.3c2.8,0,5.1-2.3,5.1-5.1v-88.7C245.2,121,242.9,118.7,240.1,118.7z"/>
<path class="st42" d="M236.5,214H75.3c-2.8,0-5.1-2.3-5.1-5.1v-88.7c0-2.8,2.3-5.1,5.1-5.1h161.2c2.8,0,5.1,2.3,5.1,5.1v88.7
	C241.6,211.7,239.3,214,236.5,214z"/>
<path class="st43" d="M272.9,162.6c-2.7,0-5,2.2-5,5v28.2H309c2.5,0,4.5-2,4.5-4.5v-28.7H272.9z"/>
<path class="st44" d="M309,186V96.2c0-2.5-2-4.5-4.5-4.5H210c-2.5,0-4.5,2-4.5,4.5V186c0,2.5,2,4.5,4.5,4.5h94.5
	C307,190.4,309,188.4,309,186z"/>
<linearGradient id="SVGID_46_" gradientUnits="userSpaceOnUse" x1="257" y1="294.8151" x2="257" y2="264.8923" gradientTransform="matrix(1 0 0 -1 0 408)">
	<stop  offset="0" style="stop-color:#FFFFFF"/>
	<stop  offset="0.3452" style="stop-color:#FCFEFF"/>
	<stop  offset="0.5613" style="stop-color:#F4F9FF"/>
	<stop  offset="0.7419" style="stop-color:#E5F1FE"/>
	<stop  offset="0.902" style="stop-color:#D1E5FD"/>
	<stop  offset="0.9892" style="stop-color:#C2DDFD"/>
</linearGradient>
<circle class="st45" cx="257" cy="121" r="13.7"/>
<path class="st41" d="M262.3,116.5c0,2.9-2.4,5.3-5.3,5.3s-5.3-2.4-5.3-5.3s2.4-5.3,5.3-5.3C259.9,111.2,262.3,113.6,262.3,116.5z
	 M263.6,128.2c0-3.1-2.5-5.7-5.7-5.7H256c-3.1,0-5.7,2.5-5.7,5.7H263.6L263.6,128.2z"/>
<g>
	<path class="st46" d="M283.2,145h-51.8c-0.2,0-0.3-0.1-0.3-0.3s0.1-0.3,0.3-0.3h51.8c0.2,0,0.3,0.1,0.3,0.3
		C283.5,144.8,283.3,145,283.2,145z"/>
</g>
<g>
	<path class="st46" d="M283.2,152.3h-51.8c-0.2,0-0.3-0.1-0.3-0.3s0.1-0.3,0.3-0.3h51.8c0.2,0,0.3,0.1,0.3,0.3
		S283.3,152.3,283.2,152.3z"/>
</g>
<g>
	<path class="st46" d="M283.2,159.6h-51.8c-0.2,0-0.3-0.1-0.3-0.3s0.1-0.3,0.3-0.3h51.8c0.2,0,0.3,0.1,0.3,0.3
		S283.3,159.6,283.2,159.6z"/>
</g>
<g>
	<path class="st46" d="M297.8,104.7L297.8,104.7c-0.6-0.2-1-0.4-1.3-0.7c-0.1-0.1-0.1-0.1-0.1-0.2s0-0.2,0.1-0.2
		c0.2-0.2,0.3-0.5,0.1-0.7c-0.1-0.2-0.4-0.4-0.7-0.3c-0.1,0-0.2,0-0.2,0c-0.1,0-0.1-0.1-0.1-0.2c-0.1-0.2-0.1-0.5-0.1-0.7
		s0-0.5,0.1-0.7c0-0.1,0.1-0.2,0.1-0.2c0.1,0,0.2-0.1,0.2,0c0.3,0.1,0.6,0,0.7-0.3c0.1-0.2,0.1-0.6-0.1-0.7
		c-0.1-0.1-0.1-0.1-0.1-0.2s0-0.2,0.1-0.2c0.4-0.3,0.8-0.6,1.3-0.7c0.1,0,0.2,0,0.2,0c0.1,0,0.1,0.1,0.1,0.2
		c0.1,0.3,0.3,0.5,0.6,0.5c0.3,0,0.5-0.2,0.6-0.5c0-0.1,0.1-0.2,0.1-0.2c0.1,0,0.2-0.1,0.2,0c0.5,0.1,0.9,0.4,1.3,0.7
		c0.1,0.1,0.1,0.1,0.1,0.2s0,0.2-0.1,0.2c-0.2,0.2-0.3,0.5-0.1,0.7c0.1,0.2,0.4,0.4,0.7,0.3c0.1,0,0.2,0,0.2,0
		c0.1,0,0.1,0.1,0.1,0.2c0.1,0.2,0.1,0.5,0.1,0.7s0,0.5-0.1,0.7c0,0.1-0.1,0.2-0.1,0.2c-0.1,0-0.2,0.1-0.2,0c-0.3-0.1-0.6,0-0.7,0.3
		c-0.1,0.2-0.1,0.6,0.1,0.7c0.1,0.1,0.1,0.1,0.1,0.2s0,0.2-0.1,0.2c-0.4,0.3-0.8,0.6-1.3,0.7c-0.1,0-0.2,0-0.2,0
		c-0.1,0-0.1-0.1-0.1-0.2c-0.1-0.3-0.3-0.5-0.6-0.5c-0.3,0-0.5,0.2-0.6,0.5c0,0.1-0.1,0.2-0.1,0.2S297.9,104.7,297.8,104.7z
		 M297.1,103.7c0.2,0.1,0.3,0.2,0.5,0.3c0.2-0.4,0.6-0.6,1.1-0.6c0.4,0,0.9,0.3,1.1,0.6c0.2-0.1,0.4-0.2,0.5-0.3
		c-0.2-0.4-0.2-0.8,0-1.2c0.2-0.4,0.6-0.6,1.1-0.6c0-0.1,0-0.2,0-0.3c0-0.1,0-0.2,0-0.3c-0.4,0-0.9-0.2-1.1-0.6s-0.2-0.9,0-1.2
		c-0.2-0.1-0.3-0.2-0.5-0.3c-0.2,0.4-0.6,0.6-1.1,0.6s-0.9-0.3-1.1-0.6c-0.2,0.1-0.4,0.2-0.5,0.3c0.2,0.4,0.2,0.8,0,1.2
		c-0.2,0.4-0.6,0.6-1.1,0.6c0,0.1,0,0.2,0,0.3c0,0.1,0,0.2,0,0.3c0.4,0,0.9,0.2,1.1,0.6C297.4,102.9,297.4,103.3,297.1,103.7z
		 M298.7,102.9c-0.7,0-1.3-0.6-1.3-1.3c0-0.7,0.6-1.3,1.3-1.3c0.7,0,1.3,0.6,1.3,1.3S299.5,102.9,298.7,102.9z M298.7,100.8
		c-0.4,0-0.7,0.3-0.7,0.7s0.3,0.7,0.7,0.7c0.4,0,0.7-0.3,0.7-0.7S299.1,100.8,298.7,100.8z"/>
</g>
<ellipse class="st19" cx="82.6" cy="53.5" rx="25.9" ry="25.9"/>
<linearGradient id="SVGID_47_" gradientUnits="userSpaceOnUse" x1="62.2508" y1="342.5482" x2="99.1172" y2="364.0199" gradientTransform="matrix(1 0 0 -1 0 408)">
	<stop  offset="0" style="stop-color:#FA902F"/>
	<stop  offset="0.1685" style="stop-color:#F7A030"/>
	<stop  offset="0.4545" style="stop-color:#F3B530"/>
	<stop  offset="0.7347" style="stop-color:#F1C231"/>
	<stop  offset="1" style="stop-color:#F0C631"/>
</linearGradient>
<circle class="st47" cx="82.6" cy="53.6" r="18.5"/>
<linearGradient id="SVGID_48_" gradientUnits="userSpaceOnUse" x1="98.25" y1="344.9647" x2="98.25" y2="317.7085" gradientTransform="matrix(1 0 0 -1 0 408)">
	<stop  offset="0" style="stop-color:#FFFFFF"/>
	<stop  offset="0.3452" style="stop-color:#FCFEFF"/>
	<stop  offset="0.5613" style="stop-color:#F4F9FF"/>
	<stop  offset="0.7419" style="stop-color:#E5F1FE"/>
	<stop  offset="0.902" style="stop-color:#D1E5FD"/>
	<stop  offset="0.9892" style="stop-color:#C2DDFD"/>
</linearGradient>
<path class="st48" d="M23.2,82.7c0,0,24.2-21.3,34.6-20.5c10.4,0.7,1.6,10.9,7.4,11.6s21.4-15.9,29.3-16.1
	c7.9-0.2,3.7,17.8,7.2,17.8s21.8-7.4,28.2-6.9s5.2,10.4,8.5,11.1c3.4,0.7,9.9-5.3,17.7-5.1c7.9,0.2,17.2,8.1,17.2,8.1H23.2z"/>
<g>
	<g>
		<defs>
			<polygon id="SVGID_49_" points="1,1 2,1 1,2 			"/>
		</defs>
		<defs>
			<polygon id="SVGID_50_" points="-1,-1 -2,-1 -1,-2 			"/>
		</defs>
		<clipPath id="SVGID_51_">
			<use xlink:href="#SVGID_49_"  style="overflow:visible;"/>
		</clipPath>
		<clipPath id="SVGID_52_" class="st49">
			<use xlink:href="#SVGID_50_"  style="overflow:visible;"/>
		</clipPath>
		
			<linearGradient id="SVGID_53_" gradientUnits="userSpaceOnUse" x1="51.8" y1="28.2" x2="354.6" y2="28.2" gradientTransform="matrix(1 0 0 -1 0 408)">
			<stop  offset="0" style="stop-color:#999999"/>
			<stop  offset="1" style="stop-color:#808080"/>
		</linearGradient>
		<ellipse class="st50" cx="203.2" cy="379.8" rx="151.4" ry="9"/>
	</g>
</g>
<linearGradient id="SVGID_54_" gradientUnits="userSpaceOnUse" x1="51.8" y1="28.2" x2="354.6" y2="28.2" gradientTransform="matrix(1 0 0 -1 0 408)">
	<stop  offset="0" style="stop-color:#CDDBFE"/>
	<stop  offset="1" style="stop-color:#8CD3EF"/>
</linearGradient>
<ellipse class="st51" cx="203.2" cy="379.8" rx="151.4" ry="9"/>
<linearGradient id="SVGID_55_" gradientUnits="userSpaceOnUse" x1="48.2" y1="50.85" x2="99.8524" y2="50.85" gradientTransform="matrix(1 0 0 -1 0 408)">
	<stop  offset="0" style="stop-color:#FFFFFF"/>
	<stop  offset="1" style="stop-color:#7DC9FF"/>
</linearGradient>
<path class="st52" d="M92.4,380.7c5.5-16.7,7.4-47.1,7.4-47.1H48.2c0,0,1.9,30.4,7.4,47.1H92.4z"/>
<path class="st53" d="M61.7,378.4c-3-10.3-4.8-24.5-5.8-34.2h-1.5c1,9.6,2.8,23.8,5.8,34.2H61.7z"/>
<path class="st54" d="M99.8,333.6c0,1.2-11.6,2.1-25.8,2.1c-14.3,0-25.8-1-25.8-2.1c0-1.2,11.6-2.1,25.8-2.1
	C88.3,331.5,99.8,332.4,99.8,333.6z"/>
<path class="st6" d="M99.5,333.6c-0.9,0.7-8.9,1.7-22.6,1.8H76c-0.6,0-1.2,0-1.7,0H73c-0.4,0-0.7,0-1.1,0h-1.2c-0.6,0-1.2,0-1.9,0
	c-12.3-0.2-19.6-1.1-20.4-1.8c0.8-0.6,7.2-1.5,18.2-1.7c0.8,0,1.6,0,2.4,0c0.4,0,0.9,0,1.4,0c0.1,0,0.1,0,0.2,0h1.7
	c0.1,0,0.2,0,0.3,0h2.2c0.8,0,1.5,0,2.2,0h0.3c0.8,0,1.6,0,2.4,0C91.7,332,98.7,332.9,99.5,333.6z"/>
<path class="st55" d="M73,335.4c-0.4,0-0.7,0-1.1,0h-1.1c0-0.3-0.1-0.7-0.1-1.2c0-0.1,0-0.2,0-0.3c0-0.4-0.1-0.8-0.2-1.2
	c0-0.3-0.1-0.5-0.1-0.8c-0.1-1.1-0.3-2.4-0.5-3.8c-0.2-1.8-0.5-3.8-0.8-6s-0.6-4.6-1.1-7.1c-0.4-2.5-0.8-5.1-1.4-7.8
	c-0.3-1.4-0.5-2.8-0.8-4.3c-0.3-1.4-0.5-2.7-0.8-4.1c-0.2-0.9-0.4-1.9-0.6-2.8c-0.4-1.9-0.8-3.8-1.2-5.8c-0.7-2.9-1.3-5.8-2-8.6
	c-0.3-1.4-0.7-2.8-1-4.2c-0.4-1.4-0.7-2.7-1.1-4.1c-0.7-2.7-1.4-5.2-2.1-7.7c-0.2-0.6-0.3-1.2-0.5-1.8c-0.5-1.8-1-3.5-1.5-5.1
	c-0.6-2.1-1.2-4.1-1.8-5.8c-0.5-1.7-1.1-3.2-1.5-4.4c-0.7-2-1.2-3.3-1.3-3.7c0.2,0.4,0.7,1.7,1.4,3.6c0.4,1.2,1,2.7,1.6,4.4
	s1.3,3.6,2,5.7c0.5,1.5,1,3,1.5,4.7c0.2,0.7,0.5,1.4,0.7,2.2c0.7,2.4,1.5,5,2.3,7.6c0.4,1.3,0.8,2.7,1.2,4c0.4,1.4,0.8,2.8,1.1,4.2
	c0.8,2.8,1.5,5.7,2.2,8.5c0.4,1.6,0.8,3.3,1.2,4.9c0.3,1.2,0.6,2.5,0.9,3.7c0.4,1.7,0.7,3.3,1.1,4.9c0.2,1.2,0.5,2.3,0.7,3.4
	c0.6,2.7,1.1,5.4,1.5,7.8c0.5,2.4,0.9,4.7,1.2,6.8c0,0.1,0,0.2,0,0.3c0.4,2.2,0.7,4.2,1,6c0.1,1,0.3,1.8,0.4,2.7
	c0.1,0.5,0.2,1,0.2,1.4c0,0.2,0.1,0.4,0.1,0.6c0,0.3,0.1,0.7,0.1,1C72.9,334.1,73,334.8,73,335.4L73,335.4L73,335.4z"/>
<path class="st55" d="M71.4,335.2c0,0.1,0.1,0.1,0.1,0.2h-0.8c-0.6,0-1.2,0-1.9,0c-0.2-0.3-0.4-0.7-0.6-1.1c-0.5-0.7-1-1.5-1.6-2.4
	c0-0.1-0.1-0.2-0.2-0.2c-0.3-0.5-0.6-1-1-1.5s-0.7-1.1-1.1-1.6c-0.8-1.1-1.5-2.3-2.4-3.4c-0.9-1.2-1.7-2.4-2.7-3.6
	c-0.9-1.2-1.9-2.5-2.9-3.7s-2-2.4-3-3.6s-2-2.3-3-3.4c-2-2.2-3.8-4.2-5.5-5.9c-1.1-1.1-2-2-2.8-2.8c-1.4-1.4-2.4-2.2-2.7-2.5
	c0.3,0.2,1.3,1.1,2.8,2.4c0.8,0.8,1.8,1.6,2.9,2.7c1.7,1.6,3.7,3.5,5.8,5.6c1,1.1,2.1,2.1,3.1,3.3c1.1,1.1,2.1,2.3,3.2,3.5
	c1.1,1.2,2.1,2.4,3.1,3.5c1,1.2,2,2.4,2.9,3.5s1.8,2.3,2.6,3.4c0.4,0.5,0.8,1.1,1.2,1.6c0.4,0.5,0.7,1,1.1,1.5
	c0.3,0.5,0.6,0.9,0.9,1.3c0.3,0.5,0.7,0.9,1,1.3c0.2,0.4,0.5,0.7,0.7,1c0,0,0,0,0,0.1C71,334.6,71.2,334.9,71.4,335.2z"/>
<path class="st55" d="M82.4,244.2c-0.1,0.5-0.3,1.8-0.6,3.8c-0.3,1.9-0.7,4.5-1.2,7.5c-0.2,1-0.3,2-0.5,3.1
	c-1.3,8.8-3,20.6-4.4,32.3c-0.1,0.6-0.2,1.2-0.2,1.8c-0.4,3.8-0.9,7.6-1.2,11.2c-0.1,1.4-0.3,2.8-0.4,4.2c-0.2,2.8-0.5,5.4-0.6,8
	c-0.1,1.3-0.2,2.5-0.2,3.7c-0.1,1.2-0.1,2.4-0.1,3.5s-0.1,2.2-0.1,3.2v0.3c0,0.9,0,1.8,0,2.6c0,0.8,0,1.6,0,2.3c0,0.5,0,1.1,0.1,1.5
	c0,0.3,0,0.5,0,0.8c0,0.5,0.1,0.9,0.1,1.3c-0.4,0-0.7,0-1.1,0h-1.2c0-0.4,0-0.8-0.1-1.2c0-0.1,0-0.2,0-0.3c0-0.6,0-1.3,0-2.1
	c0-0.7,0-1.5,0-2.3c0-0.9,0-1.9,0.1-2.9c0-1,0.1-2.1,0.2-3.2c0-0.6,0.1-1.2,0.1-1.9c0-0.5,0.1-1.1,0.1-1.6c0.1-1.2,0.2-2.4,0.3-3.7
	c0.2-2.6,0.5-5.2,0.8-8c0.1-1.2,0.3-2.4,0.4-3.6c0.5-3.7,0.9-7.5,1.5-11.3c0.1-0.8,0.2-1.6,0.3-2.3c1.7-11.8,3.7-23.5,5.2-32.3
	c0.2-1.1,0.4-2.2,0.6-3.3c0.5-2.9,1-5.4,1.3-7.3C82,246.1,82.3,244.8,82.4,244.2z"/>
<path class="st55" d="M109.1,284.2c-0.9,1-3.4,3.6-6.4,7.2c-1.2,1.4-2.5,2.9-3.8,4.6c-3.2,3.9-6.7,8.5-9.9,13.3
	c-1.1,1.7-2.3,3.4-3.3,5.1c-1.1,1.7-2.1,3.4-3,5.1c-0.5,0.8-0.9,1.7-1.3,2.5s-0.8,1.6-1.2,2.4c-0.4,0.8-0.7,1.6-1.1,2.3
	c-0.3,0.8-0.6,1.5-0.9,2.2c-0.4,1.1-0.8,2-1.1,2.9c-0.1,0.2-0.1,0.4-0.2,0.5s-0.1,0.3-0.1,0.4c-0.3,1-0.6,1.9-0.8,2.7
	c-0.6,0-1.2,0-1.7,0h-0.6c0-0.1,0-0.2,0.1-0.2c0.2-0.5,0.4-1.2,0.6-1.8c0.1-0.4,0.3-0.8,0.5-1.3c0-0.1,0.1-0.2,0.1-0.3
	c0.4-1.1,0.9-2.4,1.5-3.7c0.3-0.7,0.7-1.4,1-2.2c0.4-0.7,0.8-1.5,1.2-2.3c0.4-0.8,0.9-1.6,1.3-2.4c0.5-0.8,0.9-1.6,1.4-2.5
	c1-1.7,2.1-3.4,3.2-5c1.1-1.7,2.3-3.4,3.5-5c3.4-4.7,7.1-9.2,10.5-13.1c1.4-1.6,2.7-3,3.9-4.4C105.6,287.6,108.1,285.2,109.1,284.2z
	"/>
<path class="st55" d="M75.8,295.9l-0.3,8l-1.1,27.8l-0.1,1.5l-0.1,1.8v0.3H73c-0.4,0-0.7,0-1.1,0l0.3-3.6l0.1-1.4l0.3-3.5l2.2-22.9
	L75.8,295.9z"/>
<linearGradient id="SVGID_56_" gradientUnits="userSpaceOnUse" x1="-209.8737" y1="98.6434" x2="-184.9289" y2="139.3427" gradientTransform="matrix(-1 0 0 -1 -78.0132 408)">
	<stop  offset="0" style="stop-color:#0056EC"/>
	<stop  offset="1" style="stop-color:#00C2EC"/>
</linearGradient>
<path class="st56" d="M132,289c5,3,8.7,8.3,8.7,8.3c1.5-2.1,2.6-12.7-3.6-20.6c-7.8-10.1-14.5-8.4-17-7.8
	c-5.1,1.2-7.3,11.3-7.4,11.8c-0.2,0-0.9,0-1.2-0.9c-0.3-1.1-1.2-5.2-4.8-6.8c-3.6-1.6-6.4,0-7.2,0.7c-0.8,0.7-5.1,3.5-5.9,7.7
	c-1,5.7,1.5,9.8,3.2,12c0.5,0.6,1,1.3,1.6,2.1c0.1,0.2,0.2,0.3,0.4,0.5c1.6,2,4.1,4,8.9,3.1c0,0-1.6-2.4-0.8-4.6s3-6.7,5.6-5.8
	c2.6,0.9-1.4,9.5-5.2,10.9c0,0,2.6,1.5,3.6,2.4s1.7,2.5,3.1,3.5c0.8,0.5,4.7,2.5,7,5c1.7,1.9,2.2,4.5,2.1,4.9
	c1.1-3,9.6-8.5,12.5-10.2s4.6-6.9,4.6-6.9s-3.7-4.6-7.6-6.8c-3.8-2.3-12.3-4.1-11.7-5.1C121.7,285.3,126.1,285.5,132,289z
	 M129.5,279.7c2.7-0.1,4.8,0.8,4.7,1.7c-0.1,0.9-7.5,0.9-8.5-0.3C125.3,280.4,126.9,279.8,129.5,279.7z"/>
<linearGradient id="SVGID_57_" gradientUnits="userSpaceOnUse" x1="-192.8162" y1="154.3593" x2="-150.9403" y2="154.3593" gradientTransform="matrix(-1 0 0 -1 -78.0132 408)">
	<stop  offset="0" style="stop-color:#0056EC"/>
	<stop  offset="1" style="stop-color:#008BEC"/>
</linearGradient>
<path class="st57" d="M105.9,253.5c-4.7-2.6-10.1-3.7-10.1-4.2c0-1.1,7.1,0.5,10.4,2.4c3.1,1.8,6.9,5.1,8.3,7.6c0,0,0.9-4.5-0.3-6.3
	c-1-1.6-5.7-4-9-5.4c-5.5-2.3-10.2-1.7-10.2-2.6s5.6-0.1,7.7,0.5c4.8,1.5,8.7,5,8.7,5s-0.2-5.4-4.8-9.3c-6.6-5.6-14.6-5.9-18.6-5.3
	c-4,0.6-4.8,4-4.2,6.7c0,0.1,0,0.1-0.1,0.1c-0.5-0.1-2.8-2.2-4.5-3.7c-2-1.8-4.2-2-5.2-1.1s-1.7,5,0,9.3c1.3,3.3,4.8,6.8,6.4,8.3
	c0.1,0.1,0.2,0.2,0.2,0.2c0.3,0.3,0.5,0.5,0.5,0.5s0.2-10.1,1.7-10.1c1.5,0.1-0.8,11.3-0.8,11.3s7.2,5.9,9.5,7.7
	c-0.2-0.2-2.7-4.1-3.4-7.8c-0.8-3.8-1.1-6.8,0.6-6.4c1.7,0.5,1.3,4.2,1.8,6.8c0.4,2.6,3.2,8.3,3.2,8.3l7.9,1.1c0,0-3.6-2.7-5.4-5
	c-1.5-2-2.5-4.3-1.2-4.7c0.5-0.2,2.3,1.4,4.2,3.7c0.3,0.3,0.5,0.6,0.6,0.7c2.4,3.1,4.6,7,4.4,9.8c0,0,6.7-3.4,7.2-5.2
	c0.6-1.8-3.4-5.5-5.2-7c-1.8-1.5-8.8-4.4-7.8-5.6c1.1-1.2,7.4,2,9,3.9s3.8,6.5,6.6,8.4c0,0,1.4-2.8,0.6-5.2
	C114.2,259.8,110.4,255.9,105.9,253.5z M76.9,242.4c-1.4,0.1-2.7,0.7-2.8,0.4c-0.3-0.7,0.8-2.6,2-2.6c1.9,0,3.7,1.6,3.6,2.1
	C79.7,242.9,78.3,242.4,76.9,242.4z M99.3,239.5c2.3,0,5.4,0.3,5.6,1.1c0.1,0.5-2.8,0.5-5.6,0.5c-2.8,0-5.6,0.2-5.6-0.2
	C93.7,240.3,95.7,239.5,99.3,239.5z"/>
<linearGradient id="SVGID_58_" gradientUnits="userSpaceOnUse" x1="-131.8024" y1="141.305" x2="-112.0582" y2="173.519" gradientTransform="matrix(-1 0 0 -1 -78.0132 408)">
	<stop  offset="0" style="stop-color:#0056EC"/>
	<stop  offset="1" style="stop-color:#00C2EC"/>
</linearGradient>
<path class="st58" d="M65.8,232.7c-3.9-1.8-7.9,0.5-9.3,2.1c-1.4,1.6-4.3,7.7-5.3,7.4c-0.1,0-0.2-0.1-0.3-0.2
	c-0.9-0.9-1.7-4.3-5.5-6.1c-3.4-1.6-11.2-1-17.3,2.6c-5,3-8,9.2-8.1,12c0,0-2.1,3.1-2.1,7.8c0,4.3,1.9,7.5,1.9,7.5s0.3-5.2,4.2-9.4
	c3.9-4.2,10.3-6.5,11.8-5.5S23,267.8,23,267.8s9,8.8,10.2,10.6c0.2-0.3,2.5-4.1,6.4-6.2c4.7-2.5,8.8-2.8,8.8-2.8s0.6-5.9,0.5-8.1
	c-0.2-3.5-2-7.5-0.4-8.1s2.8,3.5,2.9,5.8c0.3,4.5-1.6,10.4-1.7,10.7c0.2-0.1,3.2-2,5.9-4.6c0.3-0.3,0.6-0.7,0.9-1.1
	c0.1-0.2,0.2-0.4,0.3-0.6c1.4-2.5,1-5.6-0.2-8.1c-1.5-3.1-4.5-7.5-3.5-7.9s3.6,1.1,4.9,2.5c1.3,1.4,2.9,6.8,2.9,6.8s2.4-2.9,2.8-5.3
	c0.4-2.4,0.7-6.2,1.6-7.9C66.3,241.8,69.7,234.5,65.8,232.7z M29.2,247.4c-4,1.4-8.1,3.2-8.2,2.5c-0.2-1.4,5.6-3.6,7.9-4.4
	c2.4-0.8,8.2-2.1,8.5-1.2C37.6,244.9,33.4,246,29.2,247.4z M31.4,263.2c-0.6-0.5,1.3-3.6,2.9-5.1s3.5-2.1,3.9-1.5s-1.3,2-2.9,3.6
	C33.5,261.8,31.8,263.5,31.4,263.2z M63.7,242.8c-0.4,1.1-2.7,0.5-3.9,0.3c-1.1-0.2-3.7,0.3-4-0.5c-0.2-0.5,2.9-1.9,5-1.9
	C62.9,240.6,64,241.9,63.7,242.8z"/>
<linearGradient id="SVGID_59_" gradientUnits="userSpaceOnUse" x1="-123.2537" y1="100.8023" x2="-92.8191" y2="100.8023" gradientTransform="matrix(-1 0 0 -1 -78.0132 408)">
	<stop  offset="0" style="stop-color:#0056EC"/>
	<stop  offset="1" style="stop-color:#008BEC"/>
</linearGradient>
<path class="st59" d="M15.4,320.8c0,0-0.3-5.4,4.1-8.6c4.5-3.2,10-4.9,15-6.7c5-1.8,10.8-3.9,10.7-7.9s-4-4.7-6.4-3.1
	c-1.4,1-3.3,3.3-3.3,3.3s3.1-4,1.1-4.2s-5.6,6.2-10.2,9.1C24.4,304.1,12,311.9,15.4,320.8z"/>
<linearGradient id="SVGID_60_" gradientUnits="userSpaceOnUse" x1="70.1853" y1="100.7908" x2="81.0372" y2="118.4965" gradientTransform="matrix(1 0 0 -1 0 408)">
	<stop  offset="0" style="stop-color:#0056EC"/>
	<stop  offset="1" style="stop-color:#00C2EC"/>
</linearGradient>
<path class="st60" d="M74.8,295c0,0,0.2-2.3-2.1-2.7c-3.3-0.7-8.8,2.7-9.3,6c-0.5,3.4,2.2,4.6,3.7,5s3.6,0.5,3.8,1.9
	c0.2,1.4,0.4,2.7,0.9,3.3c0,0-0.4-2.7,0.6-3.7c1.1-1.1,5.3-0.5,9.5-1.7c4.1-1.1,6.7-3.7,6.3-6.5c-0.4-2.8-4.1-6.4-8.8-5.9
	C74.8,291.1,74.8,295,74.8,295z"/>
<path class="st61" d="M112.4,280.8c0,0,0.2,0.5,0.6,1.5c0.2,0.5,0.4,1,0.7,1.7c0.3,0.6,0.6,1.4,1,2.2c0.2,0.4,0.4,0.8,0.6,1.2
	c0.1,0.2,0.2,0.4,0.3,0.6c0.1,0.2,0.3,0.4,0.4,0.6c0.3,0.4,0.5,0.9,0.9,1.3c0.3,0.4,0.6,0.9,1,1.3c0.7,0.9,1.4,1.8,2,2.7
	c0.3,0.5,0.7,0.9,1,1.4s0.6,1,0.9,1.5c0.2,0.5,0.6,1,0.7,1.6c0.2,0.5,0.4,1.1,0.6,1.6c0.2,1.1,0.6,2.2,0.7,3.3
	c0.1,0.5,0.2,1.1,0.2,1.6s0,1,0.1,1.5c0,0.5,0,1,0,1.5s0,0.9,0,1.4c-0.1,0.9-0.1,1.7-0.2,2.4c-0.1,0.7-0.2,1.3-0.3,1.8
	c-0.1,0.5-0.2,0.9-0.2,1.2c-0.1,0.3-0.1,0.4-0.1,0.4s0-0.1,0.1-0.4s0.2-0.7,0.3-1.2c0.1-0.5,0.2-1.1,0.3-1.8
	c0.1-0.7,0.2-1.5,0.3-2.4c0-0.4,0-0.9,0.1-1.4c0-0.5,0.1-1,0-1.5c0-0.5,0-1,0-1.5s-0.1-1.1-0.2-1.6c-0.1-1.1-0.4-2.2-0.6-3.3
	c-0.2-0.6-0.4-1.1-0.6-1.7s-0.5-1.1-0.7-1.6s-0.6-1-0.9-1.5s-0.6-1-0.9-1.5c-0.6-1-1.3-1.9-2-2.7c-0.3-0.4-0.6-0.9-0.9-1.3
	s-0.6-0.8-0.8-1.3c-0.1-0.2-0.2-0.4-0.4-0.6c-0.1-0.2-0.2-0.4-0.3-0.6c-0.2-0.4-0.4-0.8-0.6-1.2c-0.4-0.8-0.7-1.5-1-2.2
	c-0.3-0.6-0.5-1.2-0.7-1.7c-0.4-0.9-0.6-1.5-0.6-1.5L112.4,280.8z"/>
<path class="st55" d="M83.5,242.7c0,0,0.3,0.3,0.7,0.8c0.5,0.5,1.1,1.2,1.9,2.1c0.8,0.9,1.7,1.9,2.7,3s2,2.3,3,3.5s2,2.4,3,3.5
	c0.9,1.2,1.8,2.3,2.5,3.2c1.5,1.9,2.4,3.1,2.4,3.1s-0.9-1.3-2.3-3.2c-0.7-1-1.5-2.1-2.4-3.3s-1.9-2.4-2.9-3.6c-1-1.2-2-2.5-2.9-3.6
	c-1-1.1-1.8-2.2-2.6-3.1c-0.8-0.9-1.4-1.7-1.9-2.2s-0.7-0.8-0.7-0.8L83.5,242.7z"/>
<path class="st62" d="M51,241.9c0,0-0.1,0.1-0.4,0.3c-0.2,0.2-0.6,0.5-1,0.9s-0.9,0.9-1.4,1.5s-1.1,1.3-1.7,2
	c-0.6,0.8-1.2,1.6-1.8,2.5c-0.3,0.5-0.6,1-0.9,1.4c-0.3,0.5-0.6,1-0.9,1.5c-0.3,0.5-0.6,1.1-0.9,1.6c-0.3,0.5-0.6,1.1-0.8,1.7
	c-0.3,0.6-0.6,1.1-0.8,1.7c-0.3,0.6-0.5,1.2-0.8,1.8c-0.5,1.2-1,2.4-1.5,3.5c-0.2,0.6-0.5,1.2-0.7,1.7c-0.2,0.6-0.4,1.2-0.6,1.7
	c-0.4,1.1-0.8,2.2-1.1,3.3c-0.3,1.1-0.6,2.1-0.9,3c-0.3,0.9-0.5,1.8-0.7,2.5c-0.2,0.8-0.4,1.4-0.5,2c-0.3,1.1-0.4,1.7-0.4,1.7
	s0.2-0.6,0.5-1.7c0.1-0.5,0.3-1.2,0.5-2s0.4-1.6,0.7-2.5s0.6-1.9,0.9-3c0.3-1.1,0.7-2.1,1.1-3.3c0.2-0.6,0.4-1.1,0.6-1.7
	c0.2-0.6,0.5-1.2,0.7-1.7c0.5-1.2,1-2.4,1.5-3.5c0.3-0.6,0.5-1.2,0.8-1.7c0.3-0.6,0.6-1.1,0.9-1.7c0.3-0.6,0.6-1.1,0.9-1.7
	c0.3-0.5,0.6-1.1,0.9-1.6c0.3-0.5,0.6-1,0.9-1.5c0.3-0.5,0.6-1,0.9-1.4c0.6-0.9,1.2-1.7,1.8-2.5s1.2-1.4,1.7-2s1-1,1.4-1.4
	s0.7-0.6,1-0.8c0.2-0.2,0.4-0.3,0.4-0.3L51,241.9z"/>
<path class="st55" d="M93.1,315.2l-3.4,4.2l-10,12.3l-2.9,3.6h-0.9c-0.6,0-1.2,0-1.7,0H74l0.3-0.3l2.7-2.8l0.5-0.5l11.9-12.5
	L93.1,315.2z"/>
<path class="st22" d="M93.8,314.1c0,0-0.2-2.3,2.5-2.9c2.7-0.7,8.3,1.4,10.5,3.7c2.2,2.3,1.7,5.8,0,6.6c-1.7,0.8-4.6,1.3-5.2,2.1
	c-0.7,0.8-1.4,2.7-1.4,2.7s-0.8-4.5-2.3-5.6s-6,0.1-8.3-1.3c-3.1-1.9-3.4-5.3-1.5-6.9C91,310.1,93.8,314.1,93.8,314.1z"/>
<polygon class="st63" points="365,199.8 370.1,202.2 370.1,249.8 365,247.5 "/>
<polygon class="st64" points="375.1,199.8 370.1,202.2 370.1,249.8 375.1,247.5 "/>
<polygon class="st65" points="365,199.8 370.1,202.2 370.1,221.7 365,219.3 "/>
<polygon class="st66" points="370.1,197.6 365,199.8 370.1,202.2 375.1,199.8 "/>
<polygon class="st67" points="375.1,199.8 370.1,202.2 370.1,221.7 375.1,219.3 "/>
<polygon class="st63" points="380.6,210.7 380.6,232.1 380.6,247.5 385.7,249.8 385.7,232.1 385.7,213.1 "/>
<polygon class="st64" points="385.7,213.1 385.7,232.1 385.7,249.8 390.7,247.5 390.7,232.1 390.7,210.7 "/>
<polygon class="st68" points="380.6,210.7 380.6,217.6 385.7,220 385.7,213.1 "/>
<polygon class="st68" points="385.7,208.5 380.6,210.7 385.7,213.1 390.7,210.7 "/>
<polygon class="st68" points="385.7,213.1 385.7,220 390.7,217.6 390.7,210.7 "/>
<polygon class="st63" points="396.2,217.6 396.2,230.2 396.2,235.6 396.2,247.5 401.2,249.8 401.2,235.6 401.2,230.2 401.2,220 "/>
<polygon class="st64" points="401.2,220 401.2,230.2 401.2,235.6 401.2,249.8 406.3,247.5 406.3,235.6 406.3,230.2 406.3,217.6 "/>
<polygon class="st69" points="396.2,217.6 401.2,220 401.2,224.1 396.2,221.8 "/>
<polygon class="st70" points="401.2,215.4 396.2,217.6 401.2,220 406.3,217.6 "/>
<polygon class="st5" points="406.3,217.6 401.2,220 401.2,224.1 406.3,221.8 "/>
<polygon class="st63" points="411.8,199.8 416.8,202.2 416.8,249.8 411.8,247.5 "/>
<polygon class="st64" points="421.8,199.8 416.8,202.2 416.8,249.8 421.8,247.5 "/>
<polygon class="st71" points="411.8,199.8 416.8,202.2 416.8,217.7 411.8,215.4 "/>
<polygon class="st72" points="416.8,197.6 411.8,199.8 416.8,202.2 421.8,199.8 "/>
<polygon class="st73" points="421.8,199.8 416.8,202.2 416.8,217.6 421.8,215.2 "/>
<polygon class="st74" points="390.7,199.1 380.6,199.1 380.6,204 384.9,204 385.7,205 386.4,204 390.7,204 "/>
<linearGradient id="SVGID_61_" gradientUnits="userSpaceOnUse" x1="134.1447" y1="252.8" x2="146.4553" y2="252.8" gradientTransform="matrix(1 0 0 -1 0 408)">
	<stop  offset="0" style="stop-color:#D1E2FF"/>
	<stop  offset="1" style="stop-color:#ECF3FF"/>
</linearGradient>
<path class="st75" d="M134.1,134.1v39.4c0,1.6,2.8,2.8,6.2,2.8s6.2-1.3,6.2-2.8v-39.4H134.1z"/>
<path class="st76" d="M146.5,134.1c0,1.6-2.8,2.8-6.2,2.8s-6.2-1.3-6.2-2.8c0-1.6,2.8-2.8,6.2-2.8S146.5,132.6,146.5,134.1z"/>
<linearGradient id="SVGID_62_" gradientUnits="userSpaceOnUse" x1="115.2816" y1="247.6" x2="127.5921" y2="247.6" gradientTransform="matrix(1 0 0 -1 0 408)">
	<stop  offset="0" style="stop-color:#D1E2FF"/>
	<stop  offset="1" style="stop-color:#ECF3FF"/>
</linearGradient>
<path class="st77" d="M115.3,144.4v29.2c0,1.6,2.8,2.8,6.2,2.8c3.4,0,6.2-1.3,6.2-2.8v-29.2H115.3z"/>
<path class="st76" d="M127.6,144.4c0,1.6-2.8,2.8-6.2,2.8c-3.4,0-6.2-1.3-6.2-2.8c0-1.6,2.8-2.8,6.2-2.8
	C124.8,141.5,127.6,142.8,127.6,144.4z"/>
<linearGradient id="SVGID_63_" gradientUnits="userSpaceOnUse" x1="96.4184" y1="242.8" x2="108.729" y2="242.8" gradientTransform="matrix(1 0 0 -1 0 408)">
	<stop  offset="0" style="stop-color:#D1E2FF"/>
	<stop  offset="1" style="stop-color:#ECF3FF"/>
</linearGradient>
<path class="st78" d="M96.4,154v19.6c0,1.6,2.8,2.8,6.2,2.8c3.4,0,6.2-1.3,6.2-2.8V154H96.4z"/>
<path class="st76" d="M108.7,154c0,1.6-2.8,2.8-6.2,2.8c-3.4,0-6.2-1.3-6.2-2.8s2.8-2.8,6.2-2.8C106,151.2,108.7,152.4,108.7,154z"
	/>
<linearGradient id="SVGID_64_" gradientUnits="userSpaceOnUse" x1="77.5552" y1="238" x2="89.8659" y2="238" gradientTransform="matrix(1 0 0 -1 0 408)">
	<stop  offset="0" style="stop-color:#D1E2FF"/>
	<stop  offset="1" style="stop-color:#ECF3FF"/>
</linearGradient>
<path class="st79" d="M77.6,163.6v10c0,1.6,2.8,2.8,6.2,2.8c3.4,0,6.2-1.3,6.2-2.8v-10H77.6z"/>
<path class="st76" d="M89.9,163.6c0,1.6-2.8,2.8-6.2,2.8c-3.4,0-6.2-1.3-6.2-2.8c0-1.6,2.8-2.8,6.2-2.8S89.9,162,89.9,163.6z"/>
<polygon class="st65" points="88.6,153.3 78.9,153.3 78.9,158 83,158 83.7,159 84.4,158 88.6,158 "/>
<polygon class="st80" points="107.4,143.6 97.7,143.6 97.7,148.3 101.9,148.3 102.6,149.2 103.3,148.3 107.4,148.3 "/>
<polygon class="st73" points="145.1,123.8 135.5,123.8 135.5,128.5 139.6,128.5 140.3,129.4 141,128.5 145.1,128.5 "/>
<g>
	<rect x="98.1" y="190.4" class="st72" width="10.4" height="2"/>
	<rect x="98.1" y="193.5" class="st81" width="10.4" height="2"/>
	<rect x="98.1" y="196.6" class="st82" width="10.4" height="2"/>
	<rect x="98.1" y="199.7" class="st83" width="10.4" height="2"/>
	<rect x="98.1" y="202.8" class="st84" width="10.4" height="2"/>
</g>
<g>
	<rect x="114.3" y="190.4" class="st68" width="10.4" height="2"/>
	<rect x="114.3" y="193.5" class="st85" width="10.4" height="2"/>
	<rect x="114.3" y="196.6" class="st86" width="10.4" height="2"/>
	<rect x="114.3" y="199.7" class="st87" width="10.4" height="2"/>
	<rect x="114.3" y="202.8" class="st74" width="10.4" height="2"/>
</g>
<g>
	<rect x="130.5" y="190.4" class="st88" width="10.4" height="2"/>
	<rect x="130.5" y="193.5" class="st89" width="10.4" height="2"/>
	<rect x="130.5" y="196.6" class="st90" width="10.4" height="2"/>
	<rect x="130.5" y="199.7" class="st91" width="10.4" height="2"/>
	<rect x="130.5" y="202.8" class="st80" width="10.4" height="2"/>
</g>
<g>
	<rect x="146.7" y="190.4" class="st65" width="10.4" height="2"/>
	<rect x="146.7" y="193.5" class="st65" width="10.4" height="2"/>
	<rect x="146.7" y="196.6" class="st65" width="10.4" height="2"/>
	<rect x="146.7" y="199.7" class="st65" width="10.4" height="2"/>
	<rect x="146.7" y="202.8" class="st65" width="10.4" height="2"/>
</g>
<g>
	<path class="st5" d="M340.1,252.5h-62.3v-62.3h62.3V252.5z M278.4,251.9h61.1v-61.1h-61.1V251.9z"/>
</g>
<g>
	<path class="st5" d="M408,183.8h-39.8V171H408V183.8z M368.7,183.2h38.7v-11.6h-38.7V183.2z"/>
</g>
<g>
	<path class="st5" d="M429.2,175.4h-19.9V171h19.9V175.4z M409.9,174.8h18.8v-3.3h-18.8V174.8z"/>
</g>
<g>
	<path class="st5" d="M429.2,183.8h-19.9v-6.7h19.9V183.8z M409.9,183.2h18.8v-5.5h-18.8V183.2z"/>
</g>
<g>
	<path class="st5" d="M195.1,127.1h-18.3v-7.9h18.3V127.1z M177.4,126.6h17.1v-6.7h-17.1V126.6z"/>
</g>
<g>
	<path class="st5" d="M168.5,127.1h-7.6v-7.9h7.6V127.1z M161.5,126.6h6.4v-6.7h-6.4V126.6z"/>
</g>
<path class="st5" d="M308.9,240.1c-10.4,0-18.8-8.5-18.8-18.8c0-10.4,8.5-18.8,18.8-18.8s18.8,8.5,18.8,18.8
	C327.7,231.6,319.3,240.1,308.9,240.1z M308.9,206.1c-8.4,0-15.2,6.8-15.2,15.2s6.8,15.2,15.2,15.2c8.4,0,15.2-6.8,15.2-15.2
	C324,212.9,317.2,206.1,308.9,206.1z"/>
<path class="st72" d="M288.6,220.1c0.6-10.3,8.9-18.6,19.2-19.2v6.7c-6.6,0.6-11.9,5.8-12.5,12.5H288.6z"/>
<polygon class="st92" points="126.3,134 116.6,134 116.6,138.7 120.7,138.7 121.4,139.6 122.1,138.7 126.3,138.7 "/>
<g>
	
		<linearGradient id="SVGID_65_" gradientUnits="userSpaceOnUse" x1="170.1688" y1="160.112" x2="159.1736" y2="160.8168" gradientTransform="matrix(1 0 0 -1 0 408)">
		<stop  offset="0" style="stop-color:#E89492"/>
		<stop  offset="7.403362e-02" style="stop-color:#E99A98"/>
		<stop  offset="0.4304" style="stop-color:#ECB4B3"/>
		<stop  offset="0.7502" style="stop-color:#EDC4C2"/>
		<stop  offset="1" style="stop-color:#EEC9C8"/>
	</linearGradient>
	<path class="st93" d="M164.1,240v5.8c0,0-0.5,0.9-0.8,2.8c-0.3,1.9-0.2,5.1,0.2,6c0.4,1,1.4,1.1,1.9,0.9c0,0,0.6,0.5,1.1,0.6
		c0.6,0.1,1.3-0.4,1.3-0.4s0.5,0.8,1.4,0.8c0.9,0.1,1.1-0.5,1.1-0.5s0.2,0.6,1.1,0.6c0.9,0,1.5-1.4,1.5-1.4s0.5-0.1,0.6-0.4
		c0.1-0.2,0.8-5.3,0.7-5.5s-4.1-3.9-4.1-3.9l-0.1-6.2L164.1,240z"/>
	<g>
		<path class="st22" d="M174.9,259.7h-12.6c-0.6,0-1.2-0.5-1.2-1.2v-5.4c0-0.6,0.5-1.2,1.2-1.2h12.6c0.6,0,1.2,0.5,1.2,1.2v5.4
			C176.1,259.2,175.6,259.7,174.9,259.7z M163.5,257.4h10.3v-3.1h-10.3V257.4z"/>
	</g>
	<rect x="143.7" y="258.2" class="st22" width="50.1" height="40"/>
	<rect x="143.7" y="258.2" class="st94" width="4.2" height="40"/>
	<g>
		<path class="st36" d="M145.8,298.4c-0.1,0-0.2-0.1-0.2-0.2v-40c0-0.1,0.1-0.2,0.2-0.2c0.1,0,0.2,0.1,0.2,0.2v40
			C146,298.3,145.9,298.4,145.8,298.4z"/>
	</g>
	<g>
		<path class="st95" d="M167.5,249c-0.1,0-0.1-0.1-0.1-0.1l-0.1-1.5c0-0.1,0.1-0.1,0.1-0.1c0.1,0,0.1,0.1,0.1,0.1l0.1,1.5
			C167.6,249,167.5,249,167.5,249L167.5,249z"/>
	</g>
	
		<linearGradient id="SVGID_66_" gradientUnits="userSpaceOnUse" x1="165.7247" y1="154.8579" x2="163.1085" y2="155.0255" gradientTransform="matrix(1 0 0 -1 0 408)">
		<stop  offset="0" style="stop-color:#E89492"/>
		<stop  offset="7.403362e-02" style="stop-color:#E99A98"/>
		<stop  offset="0.4304" style="stop-color:#ECB4B3"/>
		<stop  offset="0.7502" style="stop-color:#EDC4C2"/>
		<stop  offset="1" style="stop-color:#EEC9C8"/>
	</linearGradient>
	<path class="st96" d="M164,254.6c0,0,1.2-2.8,1.5-3.1c0.4-0.5,1.2,0.1,1.3,0.4l-0.9,3.1L164,254.6z"/>
	
		<linearGradient id="SVGID_67_" gradientUnits="userSpaceOnUse" x1="167.5163" y1="154.5739" x2="164.9409" y2="154.739" gradientTransform="matrix(1 0 0 -1 0 408)">
		<stop  offset="0" style="stop-color:#E89492"/>
		<stop  offset="7.403362e-02" style="stop-color:#E99A98"/>
		<stop  offset="0.4304" style="stop-color:#ECB4B3"/>
		<stop  offset="0.7502" style="stop-color:#EDC4C2"/>
		<stop  offset="1" style="stop-color:#EEC9C8"/>
	</linearGradient>
	<path class="st97" d="M165.8,255.4c0,0,1-3.6,1.3-4.1c0.4-0.6,1.5-0.2,1.5,0.4c0,0.4-0.5,4.2-0.5,4.2L165.8,255.4z"/>
	
		<linearGradient id="SVGID_68_" gradientUnits="userSpaceOnUse" x1="169.6838" y1="154.342" x2="167.3607" y2="154.4909" gradientTransform="matrix(1 0 0 -1 0 408)">
		<stop  offset="0" style="stop-color:#E89492"/>
		<stop  offset="7.403362e-02" style="stop-color:#E99A98"/>
		<stop  offset="0.4304" style="stop-color:#ECB4B3"/>
		<stop  offset="0.7502" style="stop-color:#EDC4C2"/>
		<stop  offset="1" style="stop-color:#EEC9C8"/>
	</linearGradient>
	<path class="st98" d="M170.4,256.1c0.4-2.7-0.1-4.3-0.4-4.7c-0.3-0.4-1.3,0.2-1.3,0.2l-0.5,3.9L170.4,256.1z"/>
	
		<linearGradient id="SVGID_69_" gradientUnits="userSpaceOnUse" x1="171.9422" y1="154.9969" x2="167.4465" y2="155.2851" gradientTransform="matrix(1 0 0 -1 0 408)">
		<stop  offset="0" style="stop-color:#E89492"/>
		<stop  offset="7.403362e-02" style="stop-color:#E99A98"/>
		<stop  offset="0.4304" style="stop-color:#ECB4B3"/>
		<stop  offset="0.7502" style="stop-color:#EDC4C2"/>
		<stop  offset="1" style="stop-color:#EEC9C8"/>
	</linearGradient>
	<path class="st99" d="M173.8,250.8c0,0-2-0.4-2.2,1.5c0,0-1.6-0.1-2.1,0.4s-0.4,1.1-0.1,1.3c0,0,3.2,1.3,3.5,1.4L173.8,250.8z"/>
	<g>
		<path class="st20" d="M153.2,260.1H151c-0.1,0-0.2-0.1-0.2-0.2s0.1-0.2,0.2-0.2h2.2c0.1,0,0.2,0.1,0.2,0.2
			S153.3,260.1,153.2,260.1z"/>
	</g>
	<g>
		<path class="st20" d="M173.3,260.1h-17.9c-0.1,0-0.2-0.1-0.2-0.2s0.1-0.2,0.2-0.2h17.9c0.1,0,0.2,0.1,0.2,0.2
			S173.4,260.1,173.3,260.1z"/>
	</g>
</g>
<linearGradient id="SVGID_70_" gradientUnits="userSpaceOnUse" x1="209.3195" y1="265.8738" x2="187.9001" y2="267.2468" gradientTransform="matrix(1 0 0 -1 0 408)">
	<stop  offset="0" style="stop-color:#E89492"/>
	<stop  offset="7.403362e-02" style="stop-color:#E99A98"/>
	<stop  offset="0.4304" style="stop-color:#ECB4B3"/>
	<stop  offset="0.7502" style="stop-color:#EDC4C2"/>
	<stop  offset="1" style="stop-color:#EEC9C8"/>
</linearGradient>
<path class="st100" d="M211,155.1c-3.1-1.2-11.1-7.2-12.9-11.1c-1.8-3.9-2.6-8.8,0-11.5c2.6-2.8,8.1-4.7,12.5-2.9s5.6,4.6,6.1,6.1
	c0.5,1.4,1.6,3.6,0.9,4.6c-0.7,1-1.3,1.9-1.2,2.6c0.1,0.7,0.7,2.8,0.4,4.1c-0.4,1.4-2.1,7.1-2.4,7.8
	C214,155.4,212.5,155.7,211,155.1z"/>
<linearGradient id="SVGID_71_" gradientUnits="userSpaceOnUse" x1="206.0108" y1="253.6192" x2="195.164" y2="254.3145" gradientTransform="matrix(1 0 0 -1 0 408)">
	<stop  offset="0" style="stop-color:#E89492"/>
	<stop  offset="7.403362e-02" style="stop-color:#E99A98"/>
	<stop  offset="0.4304" style="stop-color:#ECB4B3"/>
	<stop  offset="0.7502" style="stop-color:#EDC4C2"/>
	<stop  offset="1" style="stop-color:#EEC9C8"/>
</linearGradient>
<path class="st101" d="M204.8,165h-0.1c-2.8,0-5-2.2-5-5v-11.4c0-2.8,2.2-5,5-5h0.1c2.8,0,5,2.2,5,5V160
	C209.8,162.7,207.6,165,204.8,165z"/>
<path class="st22" d="M216.7,135.2c-1.1,1.2-1.3,6.7-2.2,6.9s-1.5-3.3-3.7-3.3c-2.2-0.1-3.3,11.3-8.4,11.3S194,140,195,134.4
	c1-5.6,7.4-7.4,10.3-7.4c2.9,0,3.5-1.9,6.1-1.5c3.5,0.4,5,3.9,5,3.9s0.8-1.5,1.7-0.8C219.1,129.4,219,132.5,216.7,135.2z"/>
<linearGradient id="SVGID_72_" gradientUnits="userSpaceOnUse" x1="195.5918" y1="243.3718" x2="212.834" y2="253.4139" gradientTransform="matrix(1 0 0 -1 0 408)">
	<stop  offset="0" style="stop-color:#FA902F"/>
	<stop  offset="0.1685" style="stop-color:#F7A030"/>
	<stop  offset="0.4545" style="stop-color:#F3B530"/>
	<stop  offset="0.7347" style="stop-color:#F1C231"/>
	<stop  offset="1" style="stop-color:#F0C631"/>
</linearGradient>
<path class="st102" d="M195.4,159.7c0,0,3-6.8,8.8-6.2c5.9,0.6,11.6,7,11.6,7L195.4,159.7z"/>
<path class="st103" d="M205.8,229.2l-26.2,146.1c-0.4,2.5-2.8,4.1-5.3,3.7c-2.4-0.4-4.1-2.7-3.7-5.1l20.4-147c0.6-4.1,4.4-7,8.5-6.4
	s7,4.4,6.4,8.5C205.9,229,205.9,229.1,205.8,229.2z"/>
<path class="st103" d="M223.3,230.3l-7.9,144.5c-0.1,2.5-2.3,4.5-4.8,4.3c-2.5-0.1-4.4-2.2-4.3-4.6l2.1-144.7
	c0.1-4.1,3.5-7.5,7.6-7.4s7.5,3.5,7.4,7.6C223.3,230.1,223.3,230.2,223.3,230.3z"/>
<linearGradient id="SVGID_73_" gradientUnits="userSpaceOnUse" x1="204.9525" y1="26.1575" x2="223.1749" y2="36.7705" gradientTransform="matrix(1 0 0 -1 0 408)">
	<stop  offset="0" style="stop-color:#0056EC"/>
	<stop  offset="1" style="stop-color:#00C2EC"/>
</linearGradient>
<path class="st104" d="M205.6,372.7v5.3h21l-0.5-1.1c-0.3-0.7-1-1.1-1.7-1.1h-1.1c-0.3,0-0.6-0.1-0.8-0.2l-8.1-4c0,0-1.7,3-4.9,2.8
	C206.2,374.2,205.6,372.7,205.6,372.7z"/>
<linearGradient id="SVGID_74_" gradientUnits="userSpaceOnUse" x1="205.2148" y1="22.8602" x2="224.9704" y2="34.3663" gradientTransform="matrix(1 0 0 -1 0 408)">
	<stop  offset="0" style="stop-color:#0056EC"/>
	<stop  offset="1" style="stop-color:#00C2EC"/>
</linearGradient>
<rect x="205.1" y="378" class="st105" width="22" height="1.6"/>
<linearGradient id="SVGID_75_" gradientUnits="userSpaceOnUse" x1="169.8982" y1="26.3589" x2="187.5795" y2="36.6567" gradientTransform="matrix(1 0 0 -1 0 408)">
	<stop  offset="0" style="stop-color:#0056EC"/>
	<stop  offset="1" style="stop-color:#00C2EC"/>
</linearGradient>
<path class="st106" d="M170.5,372.8v5.1h20.4l-0.5-1.1c-0.3-0.7-0.9-1.1-1.7-1.1h-1.1c-0.3,0-0.5-0.1-0.8-0.2l-7.9-3.8
	c0,0-1.7,2.9-4.8,2.7C171.1,374.3,170.5,372.8,170.5,372.8z"/>
<linearGradient id="SVGID_76_" gradientUnits="userSpaceOnUse" x1="170.1319" y1="23.195" x2="189.3011" y2="34.3595" gradientTransform="matrix(1 0 0 -1 0 408)">
	<stop  offset="0" style="stop-color:#0056EC"/>
	<stop  offset="1" style="stop-color:#00C2EC"/>
</linearGradient>
<rect x="170" y="377.9" class="st107" width="21.4" height="1.5"/>
<circle class="st108" cx="206.4" cy="232.7" r="19.3"/>
<path class="st20" d="M198.4,228l-22.5,140.4L198.4,228z"/>
<path class="st22" d="M199.2,216.9c-5.8-0.4-10.7,4.1-11.5,9.8c0,0-16.5,140.3-17.3,145.9c-0.7,5.7,10.6,2.5,11.6-2.7
	s27.1-140.2,27.1-140.2c0-0.2,0.1-0.4,0.1-0.6C210,222.9,205.5,217.3,199.2,216.9z"/>
<g>
	<path class="st95" d="M170.2,245.8C170.2,245.8,170.1,245.8,170.2,245.8c-1-0.9-2.5-0.6-2.5-0.6c-0.1,0-0.1,0-0.1-0.1
		s0-0.1,0.1-0.1s1.7-0.3,2.7,0.6C170.3,245.7,170.3,245.7,170.2,245.8C170.3,245.8,170.2,245.8,170.2,245.8z"/>
</g>
<path class="st95" d="M263.8,162c0,0-0.3-2.3-1-2.3c-0.3,0-0.4,1-0.7,2.1c-0.4,1.4-0.9,2.9-1,3.2c-0.2,0.6,0.3,2.7,0.5,3
	S263.8,162,263.8,162z"/>
<g>
	
		<linearGradient id="SVGID_77_" gradientUnits="userSpaceOnUse" x1="266.4361" y1="240.9906" x2="255.5002" y2="241.6916" gradientTransform="matrix(1 0 0 -1 0 408)">
		<stop  offset="0" style="stop-color:#E89492"/>
		<stop  offset="7.403362e-02" style="stop-color:#E99A98"/>
		<stop  offset="0.4304" style="stop-color:#ECB4B3"/>
		<stop  offset="0.7502" style="stop-color:#EDC4C2"/>
		<stop  offset="1" style="stop-color:#EEC9C8"/>
	</linearGradient>
	<path class="st109" d="M259,177.3l1.8-5.9c0,0,0.6-6.4,1.3-7.8c0.7-1.4,2.5-4.2,2.9-4.7c0.4-0.6,1.7-2.5,2.5-3.5
		c0.7-0.9,1.5-0.2,1,0.7c-0.3,0.5-3.5,6.8-3.5,6.8s2.6-4.3,2.9-4.5c0.4-0.4,1.5,0,1.1,1.3l-2.1,4.2c0,0,1.8-3.7,1.9-3.8
		c0.2-0.4,1.5,0.2,1.2,1.2c-0.1,0.5-1.5,3.8-1.5,3.8s0.9-3,1.2-2.9c0.3,0,1.1,1.1,1,1.8c-0.1,0.8-1.3,3.1-1.9,4.3s-3.7,7.3-3.7,7.3
		l-1,3.4L259,177.3z"/>
	<g>
		<path class="st95" d="M268.9,166.7c-0.9-0.1-2.2-1-2.8-1.6c-0.5-0.5-1.5-0.7-2.3-0.9c-0.3-0.1-0.5-0.2-0.7-0.4
			c-0.2-0.3-0.1-0.5-0.1-0.5c0-0.1,0.1-0.1,0.2-0.1s0.1,0.1,0.1,0.2c0,0,0,0.2,0.1,0.3s0.2,0.2,0.5,0.3c0.8,0.2,1.9,0.4,2.5,1
			c0.5,0.5,1.8,1.4,2.6,1.5c0.1,0,0.1,0.1,0.1,0.2C269,166.7,269,166.7,268.9,166.7z"/>
	</g>
</g>
<path class="st110" d="M245.3,206.8c2.4,1.5,6.1,0.9,11.8-8.7c4.4-7.4,9.2-22.6,9.7-23.9c1.1-3-5.3-5.6-6.1-4
	c-0.8,1.6-1.1,2.8-4.9,9.1c-4.7,7.8-10.5,16.7-11.3,18.7C242.5,202.5,243.2,205.5,245.3,206.8z"/>
<path class="st111" d="M173.1,200.2c-3-0.6-6.4,1.3-8.7,13c-1.8,9-0.6,30.1-0.5,31.6c0.1,1.4,6.5,1.3,6.6-0.2c0.2-1.5,0.5-5.3,2-13
	c1.9-9.6,4.5-20.6,4.6-22.9C177.4,203.5,175.6,200.7,173.1,200.2z"/>
<path class="st111" d="M176.9,211.1c4.1-11,7.2-19.3,12.3-33.1c0.8-2.3,0.6-4.8-0.9-6.9c-2.3-3.3-6.9-4.1-10.3-1.8
	c-1.5,1-2.4,2.5-2.9,4.1c-3.9,14.2-6.3,22.8-9.4,34.1c-0.4,1.6-0.2,3.4,0.9,4.9c1.9,2.6,5.5,3.3,8.2,1.4
	C175.8,213.1,176.5,212.2,176.9,211.1z"/>
<path class="st22" d="M215.8,219.4c-6,0-10.8,4.8-10.9,10.8c0,0,0.6,145.6,0.6,146l11.5-4c0-0.2,9.4-141.2,9.4-141.2
	c0-0.2,0-0.4,0-0.7C226.6,224.3,221.8,219.5,215.8,219.4z"/>
<linearGradient id="SVGID_78_" gradientUnits="userSpaceOnUse" x1="205.3483" y1="250.3931" x2="203.8091" y2="169.5841" gradientTransform="matrix(1 0 0 -1 0 408)">
	<stop  offset="0" style="stop-color:#0056EC"/>
	<stop  offset="1" style="stop-color:#008BEC"/>
</linearGradient>
<path class="st112" d="M226.8,235.9c0-8.3,0-27.4,0-27.4s7.3-35.3,6.4-37.9c-1.9-5.3-18.9-13.2-30.3-13.2
	c-10.8,0-24.5,10.6-25.9,13.2c-1.4,2.5,12,38,12,38s-2.2,21.2-2.5,25C186.1,238.8,226.8,242.2,226.8,235.9z"/>
<path class="st110" d="M252.2,198.3c-6.6-9.6-11.7-17-20-29.1c-1.4-2-3.6-3.3-6.1-3.3c-4.1,0-7.4,3.3-7.4,7.4c0,1.8,0.6,3.4,1.7,4.7
	c9.4,11.4,15,18.3,22.5,27.3c1.1,1.3,2.7,2.1,4.5,2.1c3.2,0,5.9-2.6,5.9-5.9C253.2,200.3,252.8,199.2,252.2,198.3z"/>
</svg>
